{"title":"Spectre (2015) DVDScr XVID AC3 HQ Hive-CM8","uid":13090780,"size":2261498116,"categoryP":"video","categoryS":"movies","magnet":"?xt=urn:btih:6c49307bb2dc56f0cd389db4f664da8819d0d244&amp;dn=Spectre+%282015%29+DVDScr+XVID+AC3+HQ+Hive-CM8&amp;tr=udp%3A%2F%2Ftracker.leechers-paradise.org%3A6969&amp;tr=udp%3A%2F%2Fzer0day.ch%3A1337&amp;tr=udp%3A%2F%2Fopen.demonii.com%3A1337&amp;tr=udp%3A%2F%2Ftracker.coppersurfer.tk%3A6969&amp;tr=udp%3A%2F%2Fexodus.desync.com%3A6969","seeders":5,"leechers":2,"uploader":"tykoon123","files":3,"time":1451037271,"description":"http://img907.imageshack.us/img907/2176/DWPWUl.jpg\r\n\r\nThx Hive\r\n\r\nCM8 Doing It Right The First Time \r\n\r\nNotes:\r\n\r\nDVDScreener 11\r\n\r\nEncode:\r\n\r\nquality was nice on this.\r\nSlightly added brightness and sharpness and fixed rgb\r\n\r\ngot very nice\r\nenjoy\r\n\r\nVideo: 720x304 @bitrate 1700 2pass\r\nAudio: English AC3 2.0 Stereo\r\nSample: yes included\r\n\r\nps: i forgot to mention, plz support the producers and go to the cinema and watch them on a big screen too\r\nthx\r\n\r\n\r\n \nhttp://www.imdb.com/title/tt2379713/\r\n\r\n\r\nGeneral\r\nComplete name                  : Spectre.2015.DVDScr.XVID.AC3.HQ.Hive-CM8.avi\r\nFormat                         : AVI\r\nFormat/Info                    : Audio Video Interleave\r\nFormat profile                 : OpenDML\r\nFile size                      : 2.10 GiB\r\nDuration                       : 2h 52mn\r\nOverall bit rate               : 1 748 Kbps\r\nWriting application            : Nandub v1.0rc2\r\nWriting library                : Nandub build 1853/release\r\n\r\nVideo\r\nID                             : 0\r\nFormat                         : MPEG-4 Visual\r\nFormat profile                 : Advanced   \r\nFormat settings, BVOP          : 2\r\nFormat settings, QPel          : Yes\r\nFormat settings, GMC           : No warppoints\r\nFormat settings, Matrix        : Default (H.263)\r\nMuxing mode                    : Packed bitstream\r\nCodec ID                       : XVID\r\nCodec ID/Hint                  : XviD\r\nDuration                       : 2h 28mn\r\nBit rate                       : 1 759 Kbps\r\nWidth                          : 720 pixels\r\nHeight                         : 304 pixels\r\nDisplay aspect ratio           : 2.35:1\r\nFrame rate                     : 29.970 fps\r\nColor space                    : YUV\r\nChroma subsampling             : 4:2:0\r\nBit depth                      : 8 bits\r\nScan type                      : Progressive\r\nCompression mode               : Lossy\r\nBits/(Pixel*Frame)             : 0.268\r\nStream size                    : 1.82 GiB (87%)\r\nWriting library                : XviD 1.2.1 (UTC 2008-12-04)\r\n\r\nAudio\r\nID                             : 1\r\nFormat                         : AC-3\r\nFormat/Info                    : Audio Coding 3\r\nMode extension                 : CM (complete main)\r\nFormat settings, Endianness    : Big\r\nCodec ID                       : 2000\r\nDuration                       : 2h 52mn\r\nSource duration                : 2h 28mn\r\nBit rate mode                  : Constant\r\nBit rate                       : 256 Kbps\r\nChannel(s)                     : 2 channels\r\nChannel positions              : Front: L R\r\nSampling rate                  : 48.0 KHz\r\nBit depth                      : 16 bits\r\nCompression mode               : Lossy\r\nDelay relative to video        : 30ms\r\nStream size                    : 271 MiB (13%)\r\nAlignment                      : Split accross interleaves\r\nInterleave, duration           : 33 ms (1.00 video frame)\r\nInterleave, preload duration   : 500 ms\r\n\r\n\r\n\r\nScreens  \nhttp://img911.imageshack.us/img911/2156/pOmNxX.png \nhttp://img903.imageshack.us/img903/3281/9NhMzH.png \nhttp://img907.imageshack.us/img907/7277/395oAF.png \nhttp://img905.imageshack.us/img905/7669/JrVX3Q.png \nhttp://img903.imageshack.us/img903/5621/KsMqRh.png \nhttp://img905.imageshack.us/img905/5363/jJeKly.png \nhttp://img633.imageshack.us/img633/3046/AMvtgc.png","torrent":{"xt":"urn:btih:6c49307bb2dc56f0cd389db4f664da8819d0d244","amp;dn":"Spectre+%282015%29+DVDScr+XVID+AC3+HQ+Hive-CM8","amp;tr":["udp%3A%2F%2Ftracker.leechers-paradise.org%3A6969","udp%3A%2F%2Fzer0day.ch%3A1337","udp%3A%2F%2Fopen.demonii.com%3A1337","udp%3A%2F%2Ftracker.coppersurfer.tk%3A6969","udp%3A%2F%2Fexodus.desync.com%3A6969"],"infoHash":"6c49307bb2dc56f0cd389db4f664da8819d0d244","infoHashBuffer":{"type":"Buffer","data":[108,73,48,123,178,220,86,240,205,56,157,180,246,100,218,136,25,208,210,68]},"announce":[],"urlList":[]}}